<svg width="750" height="450" viewBox="0 0 750 450" fill="none" xmlns="http://www.w3.org/2000/svg">
<rect width="750" height="450" rx="20" fill="#FFF9DD"/>
<path d="M278.087 411H270.348L270.396 405.287H278.087C280.007 405.287 281.627 404.856 282.945 403.993C284.264 403.114 285.257 401.837 285.924 400.16C286.607 398.484 286.949 396.457 286.949 394.081V392.348C286.949 390.525 286.754 388.922 286.363 387.538C285.989 386.155 285.427 384.991 284.679 384.047C283.93 383.103 283.01 382.395 281.92 381.923C280.829 381.435 279.576 381.19 278.16 381.19H270.201V375.453H278.16C280.536 375.453 282.709 375.86 284.679 376.674C286.664 377.471 288.382 378.619 289.83 380.116C291.279 381.614 292.394 383.404 293.175 385.487C293.972 387.554 294.371 389.857 294.371 392.396V394.081C294.371 396.604 293.972 398.907 293.175 400.99C292.394 403.074 291.279 404.864 289.83 406.361C288.398 407.842 286.681 408.99 284.679 409.804C282.693 410.601 280.496 411 278.087 411ZM274.498 375.453V411H267.174V375.453H274.498ZM319.073 400.087V375.453H326.373V400.087C326.373 402.463 325.852 404.506 324.811 406.215C323.769 407.908 322.345 409.21 320.538 410.121C318.748 411.033 316.729 411.488 314.483 411.488C312.156 411.488 310.097 411.098 308.307 410.316C306.516 409.535 305.108 408.339 304.083 406.728C303.058 405.1 302.545 403.041 302.545 400.551H309.894C309.894 401.853 310.073 402.886 310.431 403.651C310.805 404.416 311.334 404.962 312.018 405.287C312.701 405.613 313.523 405.775 314.483 405.775C315.411 405.775 316.217 405.556 316.9 405.116C317.584 404.677 318.113 404.034 318.487 403.188C318.878 402.341 319.073 401.308 319.073 400.087ZM351.539 381.532L341.871 411H334.083L347.291 375.453H352.247L351.539 381.532ZM359.571 411L349.879 381.532L349.098 375.453H354.103L367.384 411H359.571ZM359.132 397.768V403.505H340.357V397.768H359.132ZM404.61 375.453V411H397.286L383.004 387.172V411H375.68V375.453H383.004L397.311 399.306V375.453H404.61ZM444.156 392.421V406.508C443.603 407.175 442.748 407.899 441.593 408.681C440.437 409.446 438.948 410.105 437.125 410.658C435.302 411.212 433.097 411.488 430.509 411.488C428.214 411.488 426.122 411.114 424.234 410.365C422.346 409.6 420.719 408.485 419.352 407.021C418.001 405.556 416.959 403.765 416.227 401.649C415.494 399.517 415.128 397.084 415.128 394.35V392.128C415.128 389.394 415.478 386.96 416.178 384.828C416.894 382.696 417.911 380.897 419.229 379.433C420.548 377.968 422.118 376.853 423.941 376.088C425.764 375.323 427.791 374.94 430.021 374.94C433.113 374.94 435.652 375.445 437.638 376.454C439.623 377.447 441.137 378.83 442.179 380.604C443.237 382.362 443.888 384.381 444.132 386.659H437.027C436.848 385.455 436.507 384.405 436.002 383.51C435.497 382.615 434.773 381.915 433.829 381.41C432.901 380.906 431.697 380.653 430.216 380.653C428.995 380.653 427.905 380.906 426.944 381.41C426 381.898 425.203 382.623 424.552 383.583C423.901 384.543 423.404 385.731 423.062 387.147C422.721 388.563 422.55 390.207 422.55 392.079V394.35C422.55 396.205 422.729 397.849 423.087 399.281C423.445 400.697 423.974 401.894 424.674 402.87C425.39 403.83 426.269 404.555 427.311 405.043C428.352 405.531 429.565 405.775 430.948 405.775C432.104 405.775 433.064 405.678 433.829 405.482C434.61 405.287 435.237 405.051 435.709 404.774C436.197 404.481 436.572 404.205 436.832 403.944V397.646H430.143V392.421H444.156ZM484.264 392.396V394.081C484.264 396.783 483.897 399.208 483.165 401.356C482.433 403.505 481.399 405.336 480.064 406.85C478.73 408.347 477.135 409.494 475.279 410.292C473.44 411.09 471.397 411.488 469.151 411.488C466.922 411.488 464.879 411.09 463.023 410.292C461.184 409.494 459.589 408.347 458.238 406.85C456.887 405.336 455.838 403.505 455.089 401.356C454.356 399.208 453.99 396.783 453.99 394.081V392.396C453.99 389.678 454.356 387.253 455.089 385.121C455.821 382.973 456.855 381.142 458.189 379.628C459.54 378.114 461.135 376.959 462.975 376.161C464.83 375.364 466.873 374.965 469.103 374.965C471.349 374.965 473.391 375.364 475.23 376.161C477.086 376.959 478.681 378.114 480.016 379.628C481.367 381.142 482.408 382.973 483.141 385.121C483.889 387.253 484.264 389.678 484.264 392.396ZM476.866 394.081V392.348C476.866 390.46 476.695 388.799 476.354 387.367C476.012 385.935 475.507 384.73 474.84 383.754C474.173 382.777 473.359 382.045 472.398 381.557C471.438 381.052 470.34 380.8 469.103 380.8C467.866 380.8 466.767 381.052 465.807 381.557C464.863 382.045 464.057 382.777 463.39 383.754C462.739 384.73 462.242 385.935 461.9 387.367C461.559 388.799 461.388 390.46 461.388 392.348V394.081C461.388 395.953 461.559 397.613 461.9 399.062C462.242 400.494 462.747 401.706 463.414 402.699C464.081 403.676 464.895 404.416 465.855 404.921C466.816 405.425 467.914 405.678 469.151 405.678C470.388 405.678 471.487 405.425 472.447 404.921C473.408 404.416 474.213 403.676 474.864 402.699C475.515 401.706 476.012 400.494 476.354 399.062C476.695 397.613 476.866 395.953 476.866 394.081Z" fill="#F24A72"/>
<g clip-path="url(#clip0_701_6)">
<path d="M578 254.04C578 266.464 567.928 276.536 555.504 276.536H195.496C183.072 276.536 173 266.464 173 254.04V125.496C173 113.072 183.072 103 195.496 103H555.504C567.928 103 578 113.072 578 125.496V254.04Z" fill="#092E20"/>
<path d="M242.854 130.251H262.034V219.027C252.195 220.895 244.971 221.642 237.126 221.642C213.712 221.642 201.507 211.058 201.507 190.756C201.507 171.204 214.46 158.501 234.511 158.501C237.624 158.501 239.99 158.751 242.855 159.496L242.854 130.251ZM242.854 174.938C240.613 174.192 238.745 173.943 236.379 173.943C226.664 173.943 221.06 179.921 221.06 190.381C221.06 200.595 226.415 206.199 236.254 206.199C238.37 206.199 240.114 206.074 242.854 205.702V174.938Z" fill="white"/>
<path d="M292.545 159.869V204.332C292.545 219.649 291.424 226.996 288.061 233.349C284.947 239.452 280.837 243.311 272.369 247.546L254.559 239.077C263.028 235.092 267.138 231.607 269.753 226.249C272.493 220.77 273.366 214.417 273.366 197.729V159.869H292.545ZM273.366 130.354H292.545V150.032H273.366V130.354Z" fill="white"/>
<path d="M304.129 164.228C312.599 160.243 320.693 158.5 329.536 158.5C339.375 158.5 345.85 161.115 348.715 166.222C350.333 169.085 350.832 172.821 350.832 180.794V219.773C342.237 221.02 331.403 221.891 323.433 221.891C307.368 221.891 300.143 216.286 300.143 203.833C300.143 190.381 309.733 184.155 333.272 182.161V177.926C333.272 174.44 331.528 173.196 326.671 173.196C319.573 173.196 311.602 175.187 304.128 179.048V164.228H304.129ZM334.144 194.741C321.44 195.988 317.33 197.98 317.33 202.961C317.33 206.697 319.697 208.441 324.927 208.441C327.792 208.441 330.407 208.191 334.144 207.57V194.741Z" fill="white"/>
<path d="M360.173 162.859C371.505 159.869 380.846 158.5 390.311 158.5C400.15 158.5 407.249 160.74 411.485 165.101C415.47 169.209 416.714 173.692 416.714 183.284V220.895H397.536V184.031C397.536 176.683 395.045 173.942 388.196 173.942C385.581 173.942 383.215 174.192 379.353 175.313V220.894H360.174L360.173 162.859Z" fill="white"/>
<path d="M424.17 231.356C430.896 234.843 437.621 236.461 444.719 236.461C457.297 236.461 462.653 231.356 462.653 219.151C462.653 219.027 462.653 218.902 462.653 218.776C458.917 220.644 455.18 221.392 450.2 221.392C433.386 221.392 422.674 210.307 422.674 192.749C422.674 170.953 438.492 158.625 466.512 158.625C474.733 158.625 482.33 159.495 491.546 161.362L484.979 175.198C479.873 174.201 484.57 175.064 480.711 174.691V176.683L480.96 184.777L481.083 195.239C481.208 197.853 481.208 200.469 481.333 203.084C481.333 205.45 481.333 206.572 481.333 208.316C481.333 224.755 479.963 232.477 475.854 238.828C469.875 248.169 459.539 252.777 444.843 252.777C437.37 252.777 430.896 251.655 424.169 249.04L424.17 231.356ZM462.28 174.067C462.031 174.067 461.783 174.067 461.658 174.067H460.287C456.552 173.943 452.194 174.938 449.203 176.806C444.596 179.423 442.229 184.154 442.229 190.881C442.229 200.471 446.963 205.95 455.431 205.95C458.046 205.95 460.164 205.452 462.653 204.704V203.334V198.104C462.653 195.863 462.53 193.37 462.53 190.756L462.406 181.913L462.281 175.562V174.067H462.28Z" fill="white"/>
<path d="M521.321 158.252C540.499 158.252 552.207 170.333 552.207 189.884C552.207 209.935 540.003 222.513 520.574 222.513C501.393 222.513 489.562 210.433 489.562 191.006C489.563 170.829 501.768 158.252 521.321 158.252ZM520.946 207.07C528.294 207.07 532.654 200.968 532.654 190.381C532.654 179.921 528.419 173.693 521.072 173.693C513.474 173.693 509.114 179.797 509.114 190.381C509.115 200.968 513.474 207.07 520.946 207.07Z" fill="white"/>
</g>
<defs>
<clipPath id="clip0_701_6">
<rect width="405" height="173.536" fill="white" transform="translate(173 103)"/>
</clipPath>
</defs>
</svg>
