<svg width="750" height="450" viewBox="0 0 750 450" fill="none" xmlns="http://www.w3.org/2000/svg">
<rect width="750" height="450" rx="20" fill="#FFF9DD"/>
<path d="M263.067 375.453V411H255.768V375.453H263.067ZM274.005 375.453V381.19H245.001V375.453H274.005ZM294.996 381.532L285.328 411H277.54L290.748 375.453H295.704L294.996 381.532ZM303.028 411L293.336 381.532L292.555 375.453H297.56L310.841 411H303.028ZM302.589 397.768V403.505H283.814V397.768H302.589ZM326.925 375.453V411H319.625V375.453H326.925ZM361.637 405.287V411H343.741V405.287H361.637ZM346.109 375.453V411H338.785V375.453H346.109ZM376.72 405.36L383.8 375.453H387.755L388.658 380.434L381.114 411H376.866L376.72 405.36ZM373.082 375.453L378.941 405.36L378.453 411H373.717L365.831 375.453H373.082ZM394.884 405.238L400.67 375.453H407.921L400.06 411H395.323L394.884 405.238ZM389.977 375.453L397.105 405.482L396.91 411H392.662L385.069 380.409L386.046 375.453H389.977ZM424.688 375.453V411H417.389V375.453H424.688ZM465.479 375.453V411H458.155L443.873 387.172V411H436.549V375.453H443.873L458.18 399.306V375.453H465.479ZM487.765 411H480.025L480.074 405.287H487.765C489.685 405.287 491.305 404.856 492.623 403.993C493.941 403.114 494.934 401.837 495.602 400.16C496.285 398.484 496.627 396.457 496.627 394.081V392.348C496.627 390.525 496.432 388.922 496.041 387.538C495.667 386.155 495.105 384.991 494.356 384.047C493.608 383.103 492.688 382.395 491.598 381.923C490.507 381.435 489.254 381.19 487.838 381.19H479.879V375.453H487.838C490.214 375.453 492.387 375.86 494.356 376.674C496.342 377.471 498.059 378.619 499.508 380.116C500.956 381.614 502.071 383.404 502.853 385.487C503.65 387.554 504.049 389.857 504.049 392.396V394.081C504.049 396.604 503.65 398.907 502.853 400.99C502.071 403.074 500.956 404.864 499.508 406.361C498.076 407.842 496.358 408.99 494.356 409.804C492.371 410.601 490.174 411 487.765 411ZM484.176 375.453V411H476.852V375.453H484.176Z" fill="#F24A72"/>
<path d="M456.25 158.875C446.876 155.646 438.601 149.841 432.375 142.125C425.513 133.528 416.776 126.614 406.831 121.913C396.887 117.211 385.999 114.847 375 115C360.205 113.952 345.557 118.516 333.975 127.781C322.393 137.047 314.726 150.335 312.5 165C316.883 157.666 323.481 151.911 331.342 148.564C339.204 145.217 347.925 144.451 356.25 146.375C365.609 149.698 373.87 155.537 380.125 163.25C387.025 171.778 395.779 178.621 405.721 183.256C415.663 187.892 426.532 190.198 437.5 190C452.295 191.048 466.943 186.484 478.525 177.219C490.107 167.953 497.774 154.665 500 140C495.696 147.422 489.12 153.264 481.242 156.663C473.364 160.061 464.602 160.837 456.25 158.875ZM293.75 221.125C303.124 224.354 311.399 230.159 317.625 237.875C324.487 246.472 333.224 253.386 343.169 258.087C353.113 262.789 364.001 265.153 375 265C389.795 266.048 404.443 261.484 416.025 252.219C427.607 242.953 435.274 229.665 437.5 215C433.117 222.334 426.519 228.089 418.658 231.436C410.796 234.783 402.075 235.549 393.75 233.625C384.391 230.302 376.13 224.463 369.875 216.75C362.957 208.243 354.199 201.415 344.261 196.782C334.323 192.149 323.464 189.83 312.5 190C297.705 188.952 283.057 193.516 271.475 202.781C259.893 212.047 252.226 225.335 250 240C254.304 232.578 260.88 226.736 268.758 223.338C276.636 219.939 285.398 219.163 293.75 221.125Z" fill="#38BDF8"/>
</svg>
